<?xml version="1.0" encoding="UTF-8"?>
<svg width="186px" height="55px" viewBox="0 0 186 55" version="1.1" xmlns="http://www.w3.org/2000/svg" xmlns:xlink="http://www.w3.org/1999/xlink">
    <!-- Generator: Sketch 51.2 (57519) - http://www.bohemiancoding.com/sketch -->
    <title>SVG</title>
    <desc>Created with Sketch.</desc>
    <defs></defs>
    <g id="Page-1" stroke="none" stroke-width="1" fill="none" fill-rule="evenodd">
        <path d="M179.482,55 L6.519,55 C2.925,55 0,52.088 0,48.507 L0,6.5 C0,2.916 2.925,0 6.519,0 L179.481,0 C183.071,0 186,2.916 186,6.5 L186,48.507 C186.003,52.088 183.073,55 179.482,55 Z" id="Button" fill="#A7A9AB" fill-rule="nonzero"></path>
        <g id="Tweakbox" transform="translate(17.000000, 8.000000)" fill="#FFFFFF">
            <text font-family="SFProDisplay-Bold, SF Pro Display" font-size="23.5" font-weight="bold">
                <tspan x="41.7259521" y="35">Tweakbox</tspan>
            </text>
            <path d="M18.3076923,35.1796875 L31.3846154,27 L31.3846154,12.09375 L18.3076923,17.5546875 L18.3076923,35.1796875 Z M17,14.90625 L31.2620192,8.953125 L17,3 L2.73798077,8.953125 L17,14.90625 Z M34,9 L34,27 C34,27.546875 33.8774038,28.0546875 33.6322115,28.5234375 C33.3870192,28.9921875 33.0532853,29.359375 32.6310096,29.625 L18.2463942,38.625 C17.864984,38.875 17.4495192,39 17,39 C16.5504808,39 16.135016,38.875 15.7536058,38.625 L1.36899038,29.625 C0.946714744,29.359375 0.612980769,28.9921875 0.367788462,28.5234375 C0.122596154,28.0546875 0,27.546875 0,27 L0,9 C0,8.375 0.156650641,7.8046875 0.469951923,7.2890625 C0.783253205,6.7734375 1.19871795,6.40625 1.71634615,6.1875 L16.1009615,0.1875 C16.400641,0.0625 16.7003205,0 17,0 C17.2996795,0 17.599359,0.0625 17.8990385,0.1875 L32.2836538,6.1875 C32.8012821,6.40625 33.2167468,6.7734375 33.5300481,7.2890625 C33.8433494,7.8046875 34,8.375 34,9 Z" fill-rule="nonzero"></path>
        </g>
        <text id="Download-from" font-family="SFProDisplay-Regular, SF Pro Display" font-size="13" font-weight="normal" fill="#FFFFFF">
            <tspan x="72.1037598" y="21">Download from</tspan>
        </text>
    </g>
</svg>