<?xml version="1.0" encoding="UTF-8"?>
<svg width="186px" height="55px" viewBox="0 0 186 55" version="1.1" xmlns="http://www.w3.org/2000/svg" xmlns:xlink="http://www.w3.org/1999/xlink">
    <!-- Generator: Sketch 51.2 (57519) - http://www.bohemiancoding.com/sketch -->
    <title>SVG</title>
    <desc>Created with Sketch.</desc>
    <defs></defs>
    <g id="Page-1" stroke="none" stroke-width="1" fill="none" fill-rule="evenodd">
        <path d="M179.482,55 L6.519,55 C2.925,55 0,52.088 0,48.507 L0,6.5 C0,2.916 2.925,0 6.519,0 L179.481,0 C183.071,0 186,2.916 186,6.5 L186,48.507 C186.003,52.088 183.073,55 179.482,55 Z" id="Button" fill="#FFFFFF" fill-rule="nonzero"></path>
        <g id="Ignition" transform="translate(17.000000, 8.000000)" fill="#848484">
            <path d="M61.1811523,34 L57.7158203,34 L57.7158203,17.4421387 L61.1811523,17.4421387 L61.1811523,34 Z M69.328125,31.3837891 C71.003418,31.3837891 72.0705566,30.0527344 72.0705566,27.8266602 C72.0705566,25.6120605 71.003418,24.189209 69.328125,24.189209 C67.6757812,24.189209 66.6315918,25.5891113 66.6315918,27.8266602 C66.6315918,30.0756836 67.6643066,31.3837891 69.328125,31.3837891 Z M69.270752,38.6357422 C66.0349121,38.6357422 63.8432617,37.0637207 63.5793457,34.8720703 L66.861084,34.8720703 C67.125,35.7211914 68.0888672,36.3063965 69.3625488,36.3063965 C71.0952148,36.3063965 72.059082,35.3425293 72.059082,33.9196777 L72.059082,31.7624512 L71.9902344,31.7624512 C71.4165039,33.0705566 69.9707031,33.9655762 68.1921387,33.9655762 C65.185791,33.9655762 63.2006836,31.6477051 63.2006836,27.8037109 C63.2006836,23.9023438 65.128418,21.5041504 68.2495117,21.5041504 C70.0166016,21.5041504 71.4050293,22.4335938 72.0476074,23.8449707 L72.1049805,23.8449707 L72.1049805,21.6992188 L75.409668,21.6992188 L75.409668,33.8278809 C75.409668,36.7653809 72.9541016,38.6357422 69.270752,38.6357422 Z M77.5898438,34 L77.5898438,21.6992188 L80.8256836,21.6992188 L80.8256836,23.8908691 L80.8945312,23.8908691 C81.548584,22.3647461 82.8452148,21.4697266 84.7385254,21.4697266 C87.4694824,21.4697266 89.0070801,23.190918 89.0070801,26.0710449 L89.0070801,34 L85.6564941,34 L85.6564941,26.7709961 C85.6564941,25.1645508 84.8991699,24.246582 83.3959961,24.246582 C81.8928223,24.246582 80.9404297,25.3481445 80.9404297,26.9431152 L80.9404297,34 L77.5898438,34 Z M91.1872559,34 L91.1872559,21.6992188 L94.5378418,21.6992188 L94.5378418,34 L91.1872559,34 Z M92.8510742,20.0354004 C91.8757324,20.0354004 91.1069336,19.255127 91.1069336,18.314209 C91.1069336,17.3618164 91.8757324,16.5930176 92.8510742,16.5930176 C93.826416,16.5930176 94.5952148,17.3618164 94.5952148,18.314209 C94.5952148,19.255127 93.826416,20.0354004 92.8510742,20.0354004 Z M97.6589355,18.8649902 L101.009521,18.8649902 L101.009521,21.6992188 L103.281494,21.6992188 L103.281494,24.2236328 L101.009521,24.2236328 L101.009521,30.1101074 C101.009521,31.0510254 101.468506,31.4985352 102.455322,31.4985352 C102.753662,31.4985352 103.063477,31.4755859 103.27002,31.4411621 L103.27002,33.9082031 C102.925781,33.9885254 102.352051,34.0458984 101.675049,34.0458984 C98.7834473,34.0458984 97.6589355,33.0820312 97.6589355,30.6838379 L97.6589355,24.2236328 L95.9262695,24.2236328 L95.9262695,21.6992188 L97.6589355,21.6992188 L97.6589355,18.8649902 Z M105.174805,34 L105.174805,21.6992188 L108.525391,21.6992188 L108.525391,34 L105.174805,34 Z M106.838623,20.0354004 C105.863281,20.0354004 105.094482,19.255127 105.094482,18.314209 C105.094482,17.3618164 105.863281,16.5930176 106.838623,16.5930176 C107.813965,16.5930176 108.582764,17.3618164 108.582764,18.314209 C108.582764,19.255127 107.813965,20.0354004 106.838623,20.0354004 Z M116.396973,34.263916 C112.679199,34.263916 110.303955,31.8771973 110.303955,27.8381348 C110.303955,23.8564453 112.713623,21.4353027 116.396973,21.4353027 C120.080322,21.4353027 122.48999,23.8449707 122.48999,27.8381348 C122.48999,31.8886719 120.114746,34.263916 116.396973,34.263916 Z M116.396973,31.7050781 C118.037842,31.7050781 119.082031,30.3166504 119.082031,27.8496094 C119.082031,25.4055176 118.026367,23.9941406 116.396973,23.9941406 C114.767578,23.9941406 113.700439,25.4055176 113.700439,27.8496094 C113.700439,30.3166504 114.744629,31.7050781 116.396973,31.7050781 Z M124.211182,34 L124.211182,21.6992188 L127.447021,21.6992188 L127.447021,23.8908691 L127.515869,23.8908691 C128.169922,22.3647461 129.466553,21.4697266 131.359863,21.4697266 C134.09082,21.4697266 135.628418,23.190918 135.628418,26.0710449 L135.628418,34 L132.277832,34 L132.277832,26.7709961 C132.277832,25.1645508 131.520508,24.246582 130.017334,24.246582 C128.51416,24.246582 127.561768,25.3481445 127.561768,26.9431152 L127.561768,34 L124.211182,34 Z"></path>
            <path d="M22.0415435,11.3394534 C12.8119876,5.59036822 16.98577,0 16.98577,0 C8.01937759,4.84806766 6.03506505,12.2453345 8.23131962,21.5973596 C4.9956317,19.1379887 4.53099067,16.2251012 4.6327309,12.4126766 C0.516653381,16.544744 -0.220362937,20.948273 0.0496090743,25.6560499 C0.478200659,33.1218063 7.23792458,39.0641804 15.2441677,38.9994766 C23.0212701,38.9366764 29.5999669,32.8683468 29.9756602,25.4973812 C30.2929249,19.2899134 27.5010473,14.7397025 22.0415435,11.3394534 Z M15.3423016,34.6218471 C13.9399436,34.6218471 12.6045271,34.3642768 11.3736289,33.9115122 C9.7606034,33.3181042 8.33941757,32.3757225 7.20748158,31.181009 C7.25955336,31.1757464 7.31040007,31.1648383 7.36289607,31.1588238 C12.0385462,30.6169112 15.79693,27.3005216 16.700976,23.0131678 C16.8375645,23.6592455 16.9120677,24.3267359 16.9120677,25.0103955 C16.9120677,26.8688145 16.3761276,28.6065441 15.4532556,30.1084886 C18.7157554,28.3414764 20.9175677,25.0397057 20.9175677,21.2495146 C20.9175677,18.6784552 19.900215,16.3364129 18.2322893,14.5396663 C22.8446511,15.7294671 26.237704,19.6843905 26.237704,24.3928969 C26.237704,30.0419535 21.3594036,34.6218471 15.3423016,34.6218471 Z" fill-rule="nonzero"></path>
        </g>
        <path d="M72.9924316,9.84033203 L76.0710449,9.84033203 C78.7878418,9.84033203 80.3937988,11.5351562 80.3937988,14.4169922 C80.3937988,17.3051758 78.7941895,19 76.0710449,19 L72.9924316,19 L72.9924316,9.84033203 Z M74.1350098,10.8686523 L74.1350098,17.9716797 L75.994873,17.9716797 C78.0705566,17.9716797 79.2258301,16.7021484 79.2258301,14.4296875 C79.2258301,12.1381836 78.0769043,10.8686523 75.994873,10.8686523 L74.1350098,10.8686523 Z M84.380127,19.1142578 C82.552002,19.1142578 81.3205566,17.800293 81.3205566,15.6992188 C81.3205566,13.5917969 82.552002,12.2841797 84.380127,12.2841797 C86.2019043,12.2841797 87.4333496,13.5917969 87.4333496,15.6992188 C87.4333496,17.800293 86.2019043,19.1142578 84.380127,19.1142578 Z M84.380127,18.1430664 C85.5480957,18.1430664 86.3098145,17.2543945 86.3098145,15.6992188 C86.3098145,14.144043 85.5480957,13.2553711 84.380127,13.2553711 C83.2121582,13.2553711 82.4440918,14.144043 82.4440918,15.6992188 C82.4440918,17.2543945 83.2121582,18.1430664 84.380127,18.1430664 Z M96.9421387,12.3984375 L95.1013184,19 L93.9777832,19 L92.486084,13.8901367 L92.4606934,13.8901367 L90.9753418,19 L89.8518066,19 L88.0046387,12.3984375 L89.1027832,12.3984375 L90.4230957,17.7685547 L90.4484863,17.7685547 L91.9401855,12.3984375 L93.0065918,12.3984375 L94.5046387,17.7685547 L94.5300293,17.7685547 L95.8503418,12.3984375 L96.9421387,12.3984375 Z M97.8435059,19 L97.8435059,12.3984375 L98.8845215,12.3984375 L98.8845215,13.4521484 L98.9099121,13.4521484 C99.2780762,12.7412109 99.982666,12.2841797 101.004639,12.2841797 C102.451904,12.2841797 103.289795,13.2172852 103.289795,14.715332 L103.289795,19 L102.185303,19 L102.185303,14.9121094 C102.185303,13.8457031 101.683838,13.2617188 100.668213,13.2617188 C99.6271973,13.2617188 98.947998,13.9980469 98.947998,15.1152344 L98.947998,19 L97.8435059,19 Z M104.749756,19 L104.749756,9.84033203 L105.854248,9.84033203 L105.854248,19 L104.749756,19 Z M110.081787,19.1142578 C108.253662,19.1142578 107.022217,17.800293 107.022217,15.6992188 C107.022217,13.5917969 108.253662,12.2841797 110.081787,12.2841797 C111.903564,12.2841797 113.13501,13.5917969 113.13501,15.6992188 C113.13501,17.800293 111.903564,19.1142578 110.081787,19.1142578 Z M110.081787,18.1430664 C111.249756,18.1430664 112.011475,17.2543945 112.011475,15.6992188 C112.011475,14.144043 111.249756,13.2553711 110.081787,13.2553711 C108.913818,13.2553711 108.145752,14.144043 108.145752,15.6992188 C108.145752,17.2543945 108.913818,18.1430664 110.081787,18.1430664 Z M116.423096,18.1748047 C117.464111,18.1748047 118.263916,17.4448242 118.263916,16.4926758 L118.263916,15.953125 L116.499268,16.0610352 C115.610596,16.1181641 115.102783,16.5117188 115.102783,17.1337891 C115.102783,17.762207 115.629639,18.1748047 116.423096,18.1748047 Z M116.175537,19.1142578 C114.861572,19.1142578 113.979248,18.3208008 113.979248,17.1337891 C113.979248,16.0039062 114.848877,15.2929688 116.372314,15.2041016 L118.263916,15.0961914 L118.263916,14.5439453 C118.263916,13.737793 117.730713,13.2553711 116.81665,13.2553711 C115.966064,13.2553711 115.432861,13.6552734 115.293213,14.3027344 L114.226807,14.3027344 C114.302979,13.1601562 115.280518,12.2841797 116.842041,12.2841797 C118.390869,12.2841797 119.368408,13.1220703 119.368408,14.4360352 L119.368408,19 L118.321045,19 L118.321045,17.8637695 L118.295654,17.8637695 C117.9021,18.6191406 117.064209,19.1142578 116.175537,19.1142578 Z M123.272217,19.1142578 C121.590088,19.1142578 120.44751,17.7685547 120.44751,15.6992188 C120.44751,13.6298828 121.58374,12.2841797 123.246826,12.2841797 C124.192627,12.2841797 124.954346,12.7475586 125.3479,13.4711914 L125.373291,13.4711914 L125.373291,9.84033203 L126.477783,9.84033203 L126.477783,19 L125.424072,19 L125.424072,17.8828125 L125.405029,17.8828125 C124.979736,18.6445312 124.224365,19.1142578 123.272217,19.1142578 Z M123.481689,13.2553711 C122.313721,13.2553711 121.577393,14.2075195 121.577393,15.6992188 C121.577393,17.1972656 122.313721,18.1430664 123.481689,18.1430664 C124.61792,18.1430664 125.379639,17.1782227 125.379639,15.6992188 C125.379639,14.2265625 124.61792,13.2553711 123.481689,13.2553711 Z M130.990967,19 L130.990967,13.3061523 L130.070557,13.3061523 L130.070557,12.3984375 L130.990967,12.3984375 L130.990967,11.6621094 C130.990967,10.3925781 131.581299,9.78955078 132.800049,9.78955078 C133.047607,9.78955078 133.314209,9.81494141 133.4729,9.84033203 L133.4729,10.7353516 C133.3396,10.7163086 133.155518,10.6972656 132.971436,10.6972656 C132.374756,10.6972656 132.089111,11.0146484 132.089111,11.668457 L132.089111,12.3984375 L133.441162,12.3984375 L133.441162,13.3061523 L132.095459,13.3061523 L132.095459,19 L130.990967,19 Z M134.58374,19 L134.58374,12.3984375 L135.624756,12.3984375 L135.624756,13.4775391 L135.650146,13.4775391 C135.865967,12.7475586 136.475342,12.2841797 137.249756,12.2841797 C137.440186,12.2841797 137.605225,12.315918 137.694092,12.3286133 L137.694092,13.4013672 C137.605225,13.3696289 137.370361,13.3378906 137.10376,13.3378906 C136.246826,13.3378906 135.688232,13.9536133 135.688232,14.8867188 L135.688232,19 L134.58374,19 Z M141.007568,19.1142578 C139.179443,19.1142578 137.947998,17.800293 137.947998,15.6992188 C137.947998,13.5917969 139.179443,12.2841797 141.007568,12.2841797 C142.829346,12.2841797 144.060791,13.5917969 144.060791,15.6992188 C144.060791,17.800293 142.829346,19.1142578 141.007568,19.1142578 Z M141.007568,18.1430664 C142.175537,18.1430664 142.937256,17.2543945 142.937256,15.6992188 C142.937256,14.144043 142.175537,13.2553711 141.007568,13.2553711 C139.8396,13.2553711 139.071533,14.144043 139.071533,15.6992188 C139.071533,17.2543945 139.8396,18.1430664 141.007568,18.1430664 Z M145.171631,19 L145.171631,12.3984375 L146.212646,12.3984375 L146.212646,13.4521484 L146.238037,13.4521484 C146.549072,12.7539062 147.221924,12.2841797 148.110596,12.2841797 C149.011963,12.2841797 149.678467,12.7412109 149.964111,13.5410156 L149.989502,13.5410156 C150.357666,12.7539062 151.13208,12.2841797 152.058838,12.2841797 C153.366455,12.2841797 154.210693,13.1347656 154.210693,14.4423828 L154.210693,19 L153.106201,19 L153.106201,14.6962891 C153.106201,13.7949219 152.604736,13.2617188 151.735107,13.2617188 C150.859131,13.2617188 150.243408,13.9091797 150.243408,14.8041992 L150.243408,19 L149.138916,19 L149.138916,14.5756836 C149.138916,13.7822266 148.605713,13.2617188 147.786865,13.2617188 C146.910889,13.2617188 146.276123,13.9472656 146.276123,14.8613281 L146.276123,19 L145.171631,19 Z" id="Download-from" fill="#A7A9AB"></path>
    </g>
</svg>