<?xml version="1.0" encoding="UTF-8"?>
<svg width="186px" height="55px" viewBox="0 0 186 55" version="1.1" xmlns="http://www.w3.org/2000/svg" xmlns:xlink="http://www.w3.org/1999/xlink">
    <!-- Generator: Sketch 51.2 (57519) - http://www.bohemiancoding.com/sketch -->
    <title>SVG</title>
    <desc>Created with Sketch.</desc>
    <defs></defs>
    <g id="Page-1" stroke="none" stroke-width="1" fill="none" fill-rule="evenodd">
        <path d="M179.482,55 L6.519,55 C2.925,55 0,52.088 0,48.507 L0,6.5 C0,2.916 2.925,0 6.519,0 L179.481,0 C183.071,0 186,2.916 186,6.5 L186,48.507 C186.003,52.088 183.073,55 179.482,55 Z" id="Button" fill="#FFFFFF" fill-rule="nonzero"></path>
        <g id="Sonic" transform="translate(17.000000, 10.000000)" fill="#848484">
            <path d="M43.9176025,27.2724609 L47.1878662,27.2724609 C47.4058838,28.6608887 48.8057861,29.4870605 50.6876221,29.4870605 C52.5350342,29.4870605 53.7972412,28.592041 53.7972412,27.3757324 C53.7972412,26.2856445 53.0169678,25.6660156 50.9400635,25.2414551 L49.1959229,24.8972168 C45.8912354,24.2431641 44.2733154,22.659668 44.2733154,20.192627 C44.2733154,17.1633301 46.9124756,15.1552734 50.5958252,15.1552734 C54.4627686,15.1552734 56.8953857,17.1748047 56.9527588,20.2155762 L53.6824951,20.2155762 C53.567749,18.8041992 52.3399658,17.9550781 50.5958252,17.9550781 C48.8861084,17.9550781 47.7386475,18.7583008 47.7386475,19.9746094 C47.7386475,20.9958496 48.5418701,21.6269531 50.4925537,22.0170898 L52.2481689,22.3728027 C55.7479248,23.0727539 57.2740479,24.4841309 57.2740479,26.9970703 C57.2740479,30.2329102 54.7381592,32.2868652 50.5958252,32.2868652 C46.6485596,32.2868652 44.020874,30.3935547 43.9176025,27.2724609 Z M64.7440186,32.263916 C61.0262451,32.263916 58.651001,29.8771973 58.651001,25.8381348 C58.651001,21.8564453 61.0606689,19.4353027 64.7440186,19.4353027 C68.4273682,19.4353027 70.8370361,21.8449707 70.8370361,25.8381348 C70.8370361,29.8886719 68.461792,32.263916 64.7440186,32.263916 Z M64.7440186,29.7050781 C66.3848877,29.7050781 67.4290771,28.3166504 67.4290771,25.8496094 C67.4290771,23.4055176 66.3734131,21.9941406 64.7440186,21.9941406 C63.114624,21.9941406 62.0474854,23.4055176 62.0474854,25.8496094 C62.0474854,28.3166504 63.0916748,29.7050781 64.7440186,29.7050781 Z M72.5582275,32 L72.5582275,19.6992188 L75.7940674,19.6992188 L75.7940674,21.8908691 L75.862915,21.8908691 C76.5169678,20.3647461 77.8135986,19.4697266 79.7069092,19.4697266 C82.4378662,19.4697266 83.9754639,21.190918 83.9754639,24.0710449 L83.9754639,32 L80.6248779,32 L80.6248779,24.7709961 C80.6248779,23.1645508 79.8675537,22.246582 78.3643799,22.246582 C76.8612061,22.246582 75.9088135,23.3481445 75.9088135,24.9431152 L75.9088135,32 L72.5582275,32 Z M86.1556396,32 L86.1556396,19.6992188 L89.5062256,19.6992188 L89.5062256,32 L86.1556396,32 Z M87.819458,18.0354004 C86.8441162,18.0354004 86.0753174,17.255127 86.0753174,16.314209 C86.0753174,15.3618164 86.8441162,14.5930176 87.819458,14.5930176 C88.7947998,14.5930176 89.5635986,15.3618164 89.5635986,16.314209 C89.5635986,17.255127 88.7947998,18.0354004 87.819458,18.0354004 Z M102.908569,24.2775879 L99.7989502,24.2775879 C99.6038818,22.980957 98.7432861,22.0629883 97.366333,22.0629883 C95.7139893,22.0629883 94.6812744,23.4628906 94.6812744,25.8381348 C94.6812744,28.2592773 95.7139893,29.6362305 97.3778076,29.6362305 C98.7203369,29.6362305 99.5924072,28.8330078 99.7989502,27.4904785 L102.920044,27.4904785 C102.747925,30.3935547 100.579224,32.263916 97.3433838,32.263916 C93.637085,32.263916 91.28479,29.854248 91.28479,25.8381348 C91.28479,21.8908691 93.637085,19.4353027 97.3204346,19.4353027 C100.648071,19.4353027 102.759399,21.4892578 102.908569,24.2775879 Z M109.472046,15.4421387 L115.794556,15.4421387 C120.763062,15.4421387 123.689087,18.4025879 123.689087,23.657959 C123.689087,28.9133301 120.763062,32 115.794556,32 L109.472046,32 L109.472046,15.4421387 Z M112.937378,18.2993164 L112.937378,29.1313477 L115.38147,29.1313477 C118.479614,29.1313477 120.154907,27.2495117 120.154907,23.6694336 C120.154907,20.2041016 118.433716,18.2993164 115.38147,18.2993164 L112.937378,18.2993164 Z M131.159058,21.9138184 C129.690308,21.9138184 128.634644,23.0268555 128.519897,24.5644531 L133.740845,24.5644531 C133.671997,22.9924316 132.650757,21.9138184 131.159058,21.9138184 Z M133.786743,28.2363281 L136.861938,28.2363281 C136.494751,30.6459961 134.291626,32.263916 131.250854,32.263916 C127.464233,32.263916 125.192261,29.8427734 125.192261,25.9069824 C125.192261,21.982666 127.487183,19.4353027 131.124634,19.4353027 C134.704712,19.4353027 136.96521,21.8564453 136.96521,25.597168 L136.96521,26.6184082 L128.485474,26.6184082 L128.485474,26.8249512 C128.485474,28.5805664 129.598511,29.7854004 131.308228,29.7854004 C132.536011,29.7854004 133.476929,29.1772461 133.786743,28.2363281 Z M149.759399,19.6992188 L145.536743,32 L141.750122,32 L137.493042,19.6992188 L141.084595,19.6992188 L143.643433,29.0395508 L143.71228,29.0395508 L146.259644,19.6992188 L149.759399,19.6992188 Z"></path>
            <path d="M12.8486642,33.4885695 C12.3238353,33.4224266 11.5002712,33.261063 11.1169533,33.1492701 C9.27705049,32.6126702 7.57115328,31.5653191 5.90548836,29.9496443 C5.33186181,29.3932332 5.33186181,29.3932332 4.87720579,29.3507807 C3.80333985,29.2505099 2.78799189,28.8462226 2.24592686,28.3030679 C2.05986989,28.1166374 1.88240757,27.8778902 1.79608397,27.6978788 C1.66897981,27.4328256 1.65354465,27.3495377 1.65375344,26.9298699 C1.65394856,26.5158908 1.669672,26.4289145 1.78411078,26.2082655 C1.91113495,25.9633515 2.19821896,25.6574183 2.40806866,25.5433413 C2.5127118,25.4864556 2.5127118,25.4864556 2.41120525,25.3286689 C1.95049551,24.6125001 1.51147704,23.5486809 1.28946731,22.610501 C1.04447949,21.575219 0.977166664,20.9719673 0.975283246,19.7948192 C0.973019827,18.379787 1.10777279,17.2473207 1.43589689,15.9238288 C1.57869669,15.3478444 1.57869669,15.3478444 1.45515985,14.9823985 C1.19006857,14.1982073 0.686495329,12.439348 0.456800228,11.4953679 C-0.000829516824,9.61464336 -0.104783392,8.64993991 0.100943376,8.19297064 C0.30312526,7.74387568 0.695838275,7.45399641 1.35218891,7.26936954 C1.82739428,7.13569784 3.47336941,7.15288588 4.43401043,7.3015511 C5.16495951,7.41467089 6.29570137,7.64051011 6.79703558,7.77351092 C7.06249564,7.84393585 7.06249564,7.84393585 7.55313471,7.41163948 C10.1257386,5.14494576 13.1960606,3.22456669 16.1413516,2.04000954 C19.6828048,0.615683987 22.8760499,0.20816309 26.6535685,0.698444629 C27.9961284,0.872694458 29.8488981,1.33116753 31.0438225,1.78482495 C33.348798,2.6599191 35.3839535,3.9161845 36.8326004,5.35813662 C37.395904,5.91883774 37.4956262,6.20335878 37.2842745,6.64683191 C37.1327376,6.96480148 36.9396055,7.06156764 36.3532774,7.11329923 C36.0815744,7.13727151 35.736164,7.19223469 35.5856954,7.23543941 C34.3733465,7.58355506 33.0169925,8.36632264 31.4340672,9.63140032 C30.8480806,10.0997213 30.3608943,10.5300144 30.3608943,10.5792487 C30.3608943,10.6001395 30.4432115,10.6327641 30.5438215,10.6517468 C30.8919344,10.7174294 31.8880243,11.0801416 32.3795424,11.3202024 C34.7990693,12.501906 37.0827863,15.0447737 38.5190039,18.1563495 C39.035083,19.2744382 39.094888,19.553546 38.8911413,19.8930411 C38.6989945,20.2132002 38.6145846,20.2520764 37.8721635,20.3623392 C36.5168632,20.5636244 34.9131476,20.9794636 33.8454527,21.4064537 C33.2138075,21.6590588 32.1169955,22.2066962 32.1169955,22.2694693 C32.1169955,22.2908552 32.221264,22.3474356 32.3487033,22.3952033 C33.2344124,22.7271917 34.2467219,23.5041765 34.954255,24.3950639 C36.1893795,25.9502651 37.0950107,28.304753 37.3409575,30.6000736 C37.4007479,31.1580974 37.3994601,31.1796299 37.2928257,31.4033757 C37.1772499,31.6458782 36.9664397,31.8137779 36.7128489,31.8652949 C36.6108829,31.8860099 36.2736236,31.8158218 35.6452711,31.6431179 C32.019127,30.6464568 28.3196461,30.1016972 26.2095032,30.2536728 C24.7549529,30.3584322 23.4904854,30.7077266 20.5316046,31.8221269 C16.9956651,33.1538648 15.7628249,33.4683188 13.9706154,33.4956045 C13.4474435,33.50357 12.9425644,33.5004058 12.8486618,33.4885695 L12.8486642,33.4885695 Z M15.3114811,26.7631024 C15.684515,26.5896315 15.9570483,26.3588151 16.2395347,25.9771053 C16.4413995,25.7043362 16.7023308,25.249721 16.7023308,25.1707856 C16.7023308,25.1552946 16.6598712,25.1657023 16.6079764,25.193913 C16.5560817,25.2221237 16.396935,25.2447156 16.2543172,25.244117 C15.2238028,25.2397914 14.6468699,23.9258555 14.644827,21.5785819 C14.6427489,19.1901821 15.2177136,17.8677768 16.2600996,17.8634977 C16.7307591,17.8615653 17.1055316,18.1380946 17.3785678,18.6887699 C17.5195525,18.9731156 17.7136753,19.6716226 17.7551183,20.0437002 C17.781716,20.282495 17.8002136,20.3322382 17.8373497,20.2648347 C17.9092972,20.1342465 17.847779,17.4537303 17.7581788,16.8151249 C17.5558848,15.3733264 17.179844,14.3745055 16.5954208,13.7266647 C16.1486487,13.231411 15.6678677,12.9844431 15.003099,12.9087179 C14.0463936,12.7997379 13.3043262,13.1524487 12.4786664,14.108602 C11.8165909,14.8753167 11.1148441,16.1466247 10.2101929,18.2182445 C9.01369872,20.9581753 8.44662583,21.7562659 7.57212695,21.9310232 C7.28767709,21.9878667 7.28767709,21.9878667 7.28703611,22.5140717 C7.2862605,23.1504058 7.16287634,23.8024072 6.95534176,24.2668401 C6.77805554,24.6635821 6.36214443,25.1161782 6.12654589,25.1687392 C5.7790481,25.246265 5.94709577,25.2896258 6.50120667,25.2654122 C7.19580275,25.2350595 8.41782285,25.3106831 8.9949977,25.4197384 C9.6107863,25.5360893 10.132722,25.7071789 11.1901242,26.1392959 C12.4877952,26.6696016 12.8759921,26.7777115 13.9218372,26.9000573 C14.0157398,26.9110423 14.3023687,26.914695 14.5587902,26.9081744 C14.9455193,26.8983399 15.0738552,26.8736046 15.3114811,26.7631024 Z M5.4340147,25.2676295 C5.4340147,25.2616921 5.31384811,25.1971164 5.16697756,25.1241273 C4.49691885,24.791134 4.12832687,23.9318663 4.08179701,22.5943356 C4.03869058,21.3552102 4.27550181,20.4756591 4.79693684,19.9382055 C4.94610978,19.7844501 5.10108718,19.6480413 5.14133117,19.6350743 C5.2017308,19.615614 5.17278294,19.4842592 4.97547765,18.882492 C4.64763916,17.8826063 4.33433315,17.2495014 3.97341679,16.8576038 C3.7022611,16.5631714 3.26570947,16.2768428 3.08795885,16.2768428 C2.9243551,16.2768428 2.66120187,17.9930247 2.62070227,19.3241041 C2.55529287,21.4738839 2.96403274,23.1518075 3.90012786,24.5762941 C4.04339596,24.7943096 4.22360316,25.0395769 4.30058869,25.1213327 C4.437528,25.266757 4.45133193,25.2700713 4.93728879,25.2742022 C5.21048789,25.276526 5.4340147,25.273568 5.4340147,25.2676295 Z" fill-rule="nonzero"></path>
        </g>
        <path d="M72.9924316,9.84033203 L76.0710449,9.84033203 C78.7878418,9.84033203 80.3937988,11.5351562 80.3937988,14.4169922 C80.3937988,17.3051758 78.7941895,19 76.0710449,19 L72.9924316,19 L72.9924316,9.84033203 Z M74.1350098,10.8686523 L74.1350098,17.9716797 L75.994873,17.9716797 C78.0705566,17.9716797 79.2258301,16.7021484 79.2258301,14.4296875 C79.2258301,12.1381836 78.0769043,10.8686523 75.994873,10.8686523 L74.1350098,10.8686523 Z M84.380127,19.1142578 C82.552002,19.1142578 81.3205566,17.800293 81.3205566,15.6992188 C81.3205566,13.5917969 82.552002,12.2841797 84.380127,12.2841797 C86.2019043,12.2841797 87.4333496,13.5917969 87.4333496,15.6992188 C87.4333496,17.800293 86.2019043,19.1142578 84.380127,19.1142578 Z M84.380127,18.1430664 C85.5480957,18.1430664 86.3098145,17.2543945 86.3098145,15.6992188 C86.3098145,14.144043 85.5480957,13.2553711 84.380127,13.2553711 C83.2121582,13.2553711 82.4440918,14.144043 82.4440918,15.6992188 C82.4440918,17.2543945 83.2121582,18.1430664 84.380127,18.1430664 Z M96.9421387,12.3984375 L95.1013184,19 L93.9777832,19 L92.486084,13.8901367 L92.4606934,13.8901367 L90.9753418,19 L89.8518066,19 L88.0046387,12.3984375 L89.1027832,12.3984375 L90.4230957,17.7685547 L90.4484863,17.7685547 L91.9401855,12.3984375 L93.0065918,12.3984375 L94.5046387,17.7685547 L94.5300293,17.7685547 L95.8503418,12.3984375 L96.9421387,12.3984375 Z M97.8435059,19 L97.8435059,12.3984375 L98.8845215,12.3984375 L98.8845215,13.4521484 L98.9099121,13.4521484 C99.2780762,12.7412109 99.982666,12.2841797 101.004639,12.2841797 C102.451904,12.2841797 103.289795,13.2172852 103.289795,14.715332 L103.289795,19 L102.185303,19 L102.185303,14.9121094 C102.185303,13.8457031 101.683838,13.2617188 100.668213,13.2617188 C99.6271973,13.2617188 98.947998,13.9980469 98.947998,15.1152344 L98.947998,19 L97.8435059,19 Z M104.749756,19 L104.749756,9.84033203 L105.854248,9.84033203 L105.854248,19 L104.749756,19 Z M110.081787,19.1142578 C108.253662,19.1142578 107.022217,17.800293 107.022217,15.6992188 C107.022217,13.5917969 108.253662,12.2841797 110.081787,12.2841797 C111.903564,12.2841797 113.13501,13.5917969 113.13501,15.6992188 C113.13501,17.800293 111.903564,19.1142578 110.081787,19.1142578 Z M110.081787,18.1430664 C111.249756,18.1430664 112.011475,17.2543945 112.011475,15.6992188 C112.011475,14.144043 111.249756,13.2553711 110.081787,13.2553711 C108.913818,13.2553711 108.145752,14.144043 108.145752,15.6992188 C108.145752,17.2543945 108.913818,18.1430664 110.081787,18.1430664 Z M116.423096,18.1748047 C117.464111,18.1748047 118.263916,17.4448242 118.263916,16.4926758 L118.263916,15.953125 L116.499268,16.0610352 C115.610596,16.1181641 115.102783,16.5117188 115.102783,17.1337891 C115.102783,17.762207 115.629639,18.1748047 116.423096,18.1748047 Z M116.175537,19.1142578 C114.861572,19.1142578 113.979248,18.3208008 113.979248,17.1337891 C113.979248,16.0039062 114.848877,15.2929688 116.372314,15.2041016 L118.263916,15.0961914 L118.263916,14.5439453 C118.263916,13.737793 117.730713,13.2553711 116.81665,13.2553711 C115.966064,13.2553711 115.432861,13.6552734 115.293213,14.3027344 L114.226807,14.3027344 C114.302979,13.1601562 115.280518,12.2841797 116.842041,12.2841797 C118.390869,12.2841797 119.368408,13.1220703 119.368408,14.4360352 L119.368408,19 L118.321045,19 L118.321045,17.8637695 L118.295654,17.8637695 C117.9021,18.6191406 117.064209,19.1142578 116.175537,19.1142578 Z M123.272217,19.1142578 C121.590088,19.1142578 120.44751,17.7685547 120.44751,15.6992188 C120.44751,13.6298828 121.58374,12.2841797 123.246826,12.2841797 C124.192627,12.2841797 124.954346,12.7475586 125.3479,13.4711914 L125.373291,13.4711914 L125.373291,9.84033203 L126.477783,9.84033203 L126.477783,19 L125.424072,19 L125.424072,17.8828125 L125.405029,17.8828125 C124.979736,18.6445312 124.224365,19.1142578 123.272217,19.1142578 Z M123.481689,13.2553711 C122.313721,13.2553711 121.577393,14.2075195 121.577393,15.6992188 C121.577393,17.1972656 122.313721,18.1430664 123.481689,18.1430664 C124.61792,18.1430664 125.379639,17.1782227 125.379639,15.6992188 C125.379639,14.2265625 124.61792,13.2553711 123.481689,13.2553711 Z M130.990967,19 L130.990967,13.3061523 L130.070557,13.3061523 L130.070557,12.3984375 L130.990967,12.3984375 L130.990967,11.6621094 C130.990967,10.3925781 131.581299,9.78955078 132.800049,9.78955078 C133.047607,9.78955078 133.314209,9.81494141 133.4729,9.84033203 L133.4729,10.7353516 C133.3396,10.7163086 133.155518,10.6972656 132.971436,10.6972656 C132.374756,10.6972656 132.089111,11.0146484 132.089111,11.668457 L132.089111,12.3984375 L133.441162,12.3984375 L133.441162,13.3061523 L132.095459,13.3061523 L132.095459,19 L130.990967,19 Z M134.58374,19 L134.58374,12.3984375 L135.624756,12.3984375 L135.624756,13.4775391 L135.650146,13.4775391 C135.865967,12.7475586 136.475342,12.2841797 137.249756,12.2841797 C137.440186,12.2841797 137.605225,12.315918 137.694092,12.3286133 L137.694092,13.4013672 C137.605225,13.3696289 137.370361,13.3378906 137.10376,13.3378906 C136.246826,13.3378906 135.688232,13.9536133 135.688232,14.8867188 L135.688232,19 L134.58374,19 Z M141.007568,19.1142578 C139.179443,19.1142578 137.947998,17.800293 137.947998,15.6992188 C137.947998,13.5917969 139.179443,12.2841797 141.007568,12.2841797 C142.829346,12.2841797 144.060791,13.5917969 144.060791,15.6992188 C144.060791,17.800293 142.829346,19.1142578 141.007568,19.1142578 Z M141.007568,18.1430664 C142.175537,18.1430664 142.937256,17.2543945 142.937256,15.6992188 C142.937256,14.144043 142.175537,13.2553711 141.007568,13.2553711 C139.8396,13.2553711 139.071533,14.144043 139.071533,15.6992188 C139.071533,17.2543945 139.8396,18.1430664 141.007568,18.1430664 Z M145.171631,19 L145.171631,12.3984375 L146.212646,12.3984375 L146.212646,13.4521484 L146.238037,13.4521484 C146.549072,12.7539062 147.221924,12.2841797 148.110596,12.2841797 C149.011963,12.2841797 149.678467,12.7412109 149.964111,13.5410156 L149.989502,13.5410156 C150.357666,12.7539062 151.13208,12.2841797 152.058838,12.2841797 C153.366455,12.2841797 154.210693,13.1347656 154.210693,14.4423828 L154.210693,19 L153.106201,19 L153.106201,14.6962891 C153.106201,13.7949219 152.604736,13.2617188 151.735107,13.2617188 C150.859131,13.2617188 150.243408,13.9091797 150.243408,14.8041992 L150.243408,19 L149.138916,19 L149.138916,14.5756836 C149.138916,13.7822266 148.605713,13.2617188 147.786865,13.2617188 C146.910889,13.2617188 146.276123,13.9472656 146.276123,14.8613281 L146.276123,19 L145.171631,19 Z" id="Download-from" fill="#A7A9AB"></path>
    </g>
</svg>