<?xml version="1.0" encoding="UTF-8"?>
<svg width="186px" height="55px" viewBox="0 0 186 55" version="1.1" xmlns="http://www.w3.org/2000/svg" xmlns:xlink="http://www.w3.org/1999/xlink">
    <!-- Generator: Sketch 51.2 (57519) - http://www.bohemiancoding.com/sketch -->
    <title>SVG</title>
    <desc>Created with Sketch.</desc>
    <defs></defs>
    <g id="Page-1" stroke="none" stroke-width="1" fill="none" fill-rule="evenodd">
        <path d="M179.482,55 L6.519,55 C2.925,55 0,52.088 0,48.507 L0,6.5 C0,2.916 2.925,0 6.519,0 L179.481,0 C183.071,0 186,2.916 186,6.5 L186,48.507 C186.003,52.088 183.073,55 179.482,55 Z" id="Button" fill="#FFFFFF" fill-rule="nonzero"></path>
        <g id="Tweakbox" transform="translate(17.000000, 8.000000)" fill="#848484">
            <path d="M50.5269775,34 L47.0616455,34 L47.0616455,20.2993164 L42.2767334,20.2993164 L42.2767334,17.4421387 L55.3233643,17.4421387 L55.3233643,20.2993164 L50.5269775,20.2993164 L50.5269775,34 Z M73.0631104,21.6992188 L69.8043213,34 L66.2357178,34 L64.0096436,25.3022461 L63.9407959,25.3022461 L61.7261963,34 L58.2034912,34 L54.9332275,21.6992188 L58.3067627,21.6992188 L60.1656494,30.8215332 L60.2344971,30.8215332 L62.4146729,21.6992188 L65.6275635,21.6992188 L67.8192139,30.8215332 L67.8880615,30.8215332 L69.7584229,21.6992188 L73.0631104,21.6992188 Z M79.7183838,23.9138184 C78.2496338,23.9138184 77.1939697,25.0268555 77.0792236,26.5644531 L82.3001709,26.5644531 C82.2313232,24.9924316 81.210083,23.9138184 79.7183838,23.9138184 Z M82.3460693,30.2363281 L85.4212646,30.2363281 C85.0540771,32.6459961 82.8509521,34.263916 79.8101807,34.263916 C76.0235596,34.263916 73.7515869,31.8427734 73.7515869,27.9069824 C73.7515869,23.982666 76.0465088,21.4353027 79.68396,21.4353027 C83.2640381,21.4353027 85.5245361,23.8564453 85.5245361,27.597168 L85.5245361,28.6184082 L77.0447998,28.6184082 L77.0447998,28.8249512 C77.0447998,30.5805664 78.1578369,31.7854004 79.8675537,31.7854004 C81.0953369,31.7854004 82.0362549,31.1772461 82.3460693,30.2363281 Z M91.9962158,31.7739258 C93.4534912,31.7739258 94.6583252,30.8215332 94.6583252,29.4904785 L94.6583252,28.595459 L92.0650635,28.7561035 C90.8143311,28.8479004 90.1029053,29.4101562 90.1029053,30.2822266 C90.1029053,31.2001953 90.8602295,31.7739258 91.9962158,31.7739258 Z M90.8946533,34.1950684 C88.553833,34.1950684 86.7752686,32.6804199 86.7752686,30.4658203 C86.7752686,28.2282715 88.49646,26.9316406 91.5601807,26.7480469 L94.6583252,26.5644531 L94.6583252,25.7497559 C94.6583252,24.6022949 93.8551025,23.9367676 92.5928955,23.9367676 C91.3421631,23.9367676 90.550415,24.5563965 90.3897705,25.4628906 L87.3260498,25.4628906 C87.4522705,23.0761719 89.4832764,21.4353027 92.7420654,21.4353027 C95.897583,21.4353027 97.9515381,23.0646973 97.9515381,25.5432129 L97.9515381,34 L94.7156982,34 L94.7156982,32.1181641 L94.6468506,32.1181641 C93.958374,33.4262695 92.432251,34.1950684 90.8946533,34.1950684 Z M103.585571,26.6333008 L107.762329,21.6992188 L111.560425,21.6992188 L106.86731,26.9775391 L111.789917,34 L107.934448,34 L104.411743,28.9970703 L103.539673,29.9379883 L103.539673,34 L100.189087,34 L100.189087,17.4421387 L103.539673,17.4421387 L103.539673,26.6333008 L103.585571,26.6333008 Z M120.06311,34.1950684 C118.261597,34.1950684 116.884644,33.322998 116.207642,31.8886719 L116.138794,31.8886719 L116.138794,34 L112.834106,34 L112.834106,17.4421387 L116.184692,17.4421387 L116.184692,23.8334961 L116.25354,23.8334961 C116.930542,22.3762207 118.296021,21.5041504 120.051636,21.5041504 C123.14978,21.5041504 125.054565,23.8793945 125.054565,27.8496094 C125.054565,31.8083496 123.161255,34.1950684 120.06311,34.1950684 Z M118.904175,24.189209 C117.286255,24.189209 116.173218,25.6464844 116.173218,27.8496094 C116.173218,30.0756836 117.27478,31.4985352 118.904175,31.4985352 C120.579468,31.4985352 121.623657,30.0986328 121.623657,27.8496094 C121.623657,25.6120605 120.567993,24.189209 118.904175,24.189209 Z M132.432739,34.263916 C128.714966,34.263916 126.339722,31.8771973 126.339722,27.8381348 C126.339722,23.8564453 128.74939,21.4353027 132.432739,21.4353027 C136.116089,21.4353027 138.525757,23.8449707 138.525757,27.8381348 C138.525757,31.8886719 136.150513,34.263916 132.432739,34.263916 Z M132.432739,31.7050781 C134.073608,31.7050781 135.117798,30.3166504 135.117798,27.8496094 C135.117798,25.4055176 134.062134,23.9941406 132.432739,23.9941406 C130.803345,23.9941406 129.736206,25.4055176 129.736206,27.8496094 C129.736206,30.3166504 130.780396,31.7050781 132.432739,31.7050781 Z M145.020386,29.7314453 L144.951538,29.7314453 L142.645142,34 L139.122437,34 L142.977905,27.8725586 L139.145386,21.6992188 L142.920532,21.6992188 L145.135132,25.8530273 L145.203979,25.8530273 L147.384155,21.6992188 L151.033081,21.6992188 L147.189087,27.7807617 L150.998657,34 L147.361206,34 L145.020386,29.7314453 Z"></path>
            <path d="M18.3076923,35.1796875 L31.3846154,27 L31.3846154,12.09375 L18.3076923,17.5546875 L18.3076923,35.1796875 Z M17,14.90625 L31.2620192,8.953125 L17,3 L2.73798077,8.953125 L17,14.90625 Z M34,9 L34,27 C34,27.546875 33.8774038,28.0546875 33.6322115,28.5234375 C33.3870192,28.9921875 33.0532853,29.359375 32.6310096,29.625 L18.2463942,38.625 C17.864984,38.875 17.4495192,39 17,39 C16.5504808,39 16.135016,38.875 15.7536058,38.625 L1.36899038,29.625 C0.946714744,29.359375 0.612980769,28.9921875 0.367788462,28.5234375 C0.122596154,28.0546875 0,27.546875 0,27 L0,9 C0,8.375 0.156650641,7.8046875 0.469951923,7.2890625 C0.783253205,6.7734375 1.19871795,6.40625 1.71634615,6.1875 L16.1009615,0.1875 C16.400641,0.0625 16.7003205,0 17,0 C17.2996795,0 17.599359,0.0625 17.8990385,0.1875 L32.2836538,6.1875 C32.8012821,6.40625 33.2167468,6.7734375 33.5300481,7.2890625 C33.8433494,7.8046875 34,8.375 34,9 Z" fill-rule="nonzero"></path>
        </g>
        <path d="M72.9924316,9.84033203 L76.0710449,9.84033203 C78.7878418,9.84033203 80.3937988,11.5351562 80.3937988,14.4169922 C80.3937988,17.3051758 78.7941895,19 76.0710449,19 L72.9924316,19 L72.9924316,9.84033203 Z M74.1350098,10.8686523 L74.1350098,17.9716797 L75.994873,17.9716797 C78.0705566,17.9716797 79.2258301,16.7021484 79.2258301,14.4296875 C79.2258301,12.1381836 78.0769043,10.8686523 75.994873,10.8686523 L74.1350098,10.8686523 Z M84.380127,19.1142578 C82.552002,19.1142578 81.3205566,17.800293 81.3205566,15.6992188 C81.3205566,13.5917969 82.552002,12.2841797 84.380127,12.2841797 C86.2019043,12.2841797 87.4333496,13.5917969 87.4333496,15.6992188 C87.4333496,17.800293 86.2019043,19.1142578 84.380127,19.1142578 Z M84.380127,18.1430664 C85.5480957,18.1430664 86.3098145,17.2543945 86.3098145,15.6992188 C86.3098145,14.144043 85.5480957,13.2553711 84.380127,13.2553711 C83.2121582,13.2553711 82.4440918,14.144043 82.4440918,15.6992188 C82.4440918,17.2543945 83.2121582,18.1430664 84.380127,18.1430664 Z M96.9421387,12.3984375 L95.1013184,19 L93.9777832,19 L92.486084,13.8901367 L92.4606934,13.8901367 L90.9753418,19 L89.8518066,19 L88.0046387,12.3984375 L89.1027832,12.3984375 L90.4230957,17.7685547 L90.4484863,17.7685547 L91.9401855,12.3984375 L93.0065918,12.3984375 L94.5046387,17.7685547 L94.5300293,17.7685547 L95.8503418,12.3984375 L96.9421387,12.3984375 Z M97.8435059,19 L97.8435059,12.3984375 L98.8845215,12.3984375 L98.8845215,13.4521484 L98.9099121,13.4521484 C99.2780762,12.7412109 99.982666,12.2841797 101.004639,12.2841797 C102.451904,12.2841797 103.289795,13.2172852 103.289795,14.715332 L103.289795,19 L102.185303,19 L102.185303,14.9121094 C102.185303,13.8457031 101.683838,13.2617188 100.668213,13.2617188 C99.6271973,13.2617188 98.947998,13.9980469 98.947998,15.1152344 L98.947998,19 L97.8435059,19 Z M104.749756,19 L104.749756,9.84033203 L105.854248,9.84033203 L105.854248,19 L104.749756,19 Z M110.081787,19.1142578 C108.253662,19.1142578 107.022217,17.800293 107.022217,15.6992188 C107.022217,13.5917969 108.253662,12.2841797 110.081787,12.2841797 C111.903564,12.2841797 113.13501,13.5917969 113.13501,15.6992188 C113.13501,17.800293 111.903564,19.1142578 110.081787,19.1142578 Z M110.081787,18.1430664 C111.249756,18.1430664 112.011475,17.2543945 112.011475,15.6992188 C112.011475,14.144043 111.249756,13.2553711 110.081787,13.2553711 C108.913818,13.2553711 108.145752,14.144043 108.145752,15.6992188 C108.145752,17.2543945 108.913818,18.1430664 110.081787,18.1430664 Z M116.423096,18.1748047 C117.464111,18.1748047 118.263916,17.4448242 118.263916,16.4926758 L118.263916,15.953125 L116.499268,16.0610352 C115.610596,16.1181641 115.102783,16.5117188 115.102783,17.1337891 C115.102783,17.762207 115.629639,18.1748047 116.423096,18.1748047 Z M116.175537,19.1142578 C114.861572,19.1142578 113.979248,18.3208008 113.979248,17.1337891 C113.979248,16.0039062 114.848877,15.2929688 116.372314,15.2041016 L118.263916,15.0961914 L118.263916,14.5439453 C118.263916,13.737793 117.730713,13.2553711 116.81665,13.2553711 C115.966064,13.2553711 115.432861,13.6552734 115.293213,14.3027344 L114.226807,14.3027344 C114.302979,13.1601562 115.280518,12.2841797 116.842041,12.2841797 C118.390869,12.2841797 119.368408,13.1220703 119.368408,14.4360352 L119.368408,19 L118.321045,19 L118.321045,17.8637695 L118.295654,17.8637695 C117.9021,18.6191406 117.064209,19.1142578 116.175537,19.1142578 Z M123.272217,19.1142578 C121.590088,19.1142578 120.44751,17.7685547 120.44751,15.6992188 C120.44751,13.6298828 121.58374,12.2841797 123.246826,12.2841797 C124.192627,12.2841797 124.954346,12.7475586 125.3479,13.4711914 L125.373291,13.4711914 L125.373291,9.84033203 L126.477783,9.84033203 L126.477783,19 L125.424072,19 L125.424072,17.8828125 L125.405029,17.8828125 C124.979736,18.6445312 124.224365,19.1142578 123.272217,19.1142578 Z M123.481689,13.2553711 C122.313721,13.2553711 121.577393,14.2075195 121.577393,15.6992188 C121.577393,17.1972656 122.313721,18.1430664 123.481689,18.1430664 C124.61792,18.1430664 125.379639,17.1782227 125.379639,15.6992188 C125.379639,14.2265625 124.61792,13.2553711 123.481689,13.2553711 Z M130.990967,19 L130.990967,13.3061523 L130.070557,13.3061523 L130.070557,12.3984375 L130.990967,12.3984375 L130.990967,11.6621094 C130.990967,10.3925781 131.581299,9.78955078 132.800049,9.78955078 C133.047607,9.78955078 133.314209,9.81494141 133.4729,9.84033203 L133.4729,10.7353516 C133.3396,10.7163086 133.155518,10.6972656 132.971436,10.6972656 C132.374756,10.6972656 132.089111,11.0146484 132.089111,11.668457 L132.089111,12.3984375 L133.441162,12.3984375 L133.441162,13.3061523 L132.095459,13.3061523 L132.095459,19 L130.990967,19 Z M134.58374,19 L134.58374,12.3984375 L135.624756,12.3984375 L135.624756,13.4775391 L135.650146,13.4775391 C135.865967,12.7475586 136.475342,12.2841797 137.249756,12.2841797 C137.440186,12.2841797 137.605225,12.315918 137.694092,12.3286133 L137.694092,13.4013672 C137.605225,13.3696289 137.370361,13.3378906 137.10376,13.3378906 C136.246826,13.3378906 135.688232,13.9536133 135.688232,14.8867188 L135.688232,19 L134.58374,19 Z M141.007568,19.1142578 C139.179443,19.1142578 137.947998,17.800293 137.947998,15.6992188 C137.947998,13.5917969 139.179443,12.2841797 141.007568,12.2841797 C142.829346,12.2841797 144.060791,13.5917969 144.060791,15.6992188 C144.060791,17.800293 142.829346,19.1142578 141.007568,19.1142578 Z M141.007568,18.1430664 C142.175537,18.1430664 142.937256,17.2543945 142.937256,15.6992188 C142.937256,14.144043 142.175537,13.2553711 141.007568,13.2553711 C139.8396,13.2553711 139.071533,14.144043 139.071533,15.6992188 C139.071533,17.2543945 139.8396,18.1430664 141.007568,18.1430664 Z M145.171631,19 L145.171631,12.3984375 L146.212646,12.3984375 L146.212646,13.4521484 L146.238037,13.4521484 C146.549072,12.7539062 147.221924,12.2841797 148.110596,12.2841797 C149.011963,12.2841797 149.678467,12.7412109 149.964111,13.5410156 L149.989502,13.5410156 C150.357666,12.7539062 151.13208,12.2841797 152.058838,12.2841797 C153.366455,12.2841797 154.210693,13.1347656 154.210693,14.4423828 L154.210693,19 L153.106201,19 L153.106201,14.6962891 C153.106201,13.7949219 152.604736,13.2617188 151.735107,13.2617188 C150.859131,13.2617188 150.243408,13.9091797 150.243408,14.8041992 L150.243408,19 L149.138916,19 L149.138916,14.5756836 C149.138916,13.7822266 148.605713,13.2617188 147.786865,13.2617188 C146.910889,13.2617188 146.276123,13.9472656 146.276123,14.8613281 L146.276123,19 L145.171631,19 Z" id="Download-from" fill="#A7A9AB"></path>
    </g>
</svg>